<svg width="214" height="231" viewBox="0 0 214 231" fill="none" xmlns="http://www.w3.org/2000/svg">
<g id="Group 1321315727">
<g id="icons design">
<path id="Vector" d="M212.967 93.1259V180.855L206.109 184.811V97.0927L185.334 65.2908V50.8467L212.967 93.1259Z" fill="#D2CBC4"/>
<path id="Vector_2" d="M206.109 97.0918V184.81L159.706 113.833L185.334 104.23L206.109 97.0918Z" fill="#FFFBF7"/>
<path id="Vector_3" d="M185.334 65.2905L206.109 97.0923L185.334 104.23V65.2905Z" fill="#373A3A"/>
<path id="Vector_4" d="M159.706 113.833L206.109 184.81L85.8828 115.391L146.001 92.856L159.706 113.833Z" fill="#FFFBF7"/>
<path id="Vector_5" d="M124.812 11.6932L185.334 46.6326V104.23L159.706 113.833L146.002 92.8562L132.286 97.9996L106.681 58.8244V1.21582L124.812 11.6932Z" fill="#FFECD1"/>
<path id="Vector_6" d="M146.002 5.1377L165.735 35.3147L126.269 12.5335L146.002 5.1377Z" fill="#373A3A"/>
<path id="Vector_7" d="M124.812 11.6931L152.86 1.18213L180.897 44.0776L165.735 35.3147L146.002 5.13775L126.269 12.5335L124.812 11.6931Z" fill="#DAE0E5"/>
<path id="Vector_8" d="M106.681 58.8238L132.286 97.999L85.8828 115.39V27.6719L106.681 58.8238Z" fill="#FFFBF7"/>
<path id="Vector_9" d="M106.681 19.8848V58.8246L85.8828 27.6727L106.681 19.8848Z" fill="#373A3A"/>
<path id="Vector_10" d="M106.681 18.4844V19.8851L85.8828 27.6731L92.7407 23.7174L106.681 18.4844Z" fill="white"/>
<path id="Vector_11" d="M185.334 50.8467L212.967 93.1259V180.855L206.109 184.811L146.001 92.8569L85.8828 115.392" stroke="#373A3A" stroke-linecap="round" stroke-linejoin="round"/>
<path id="Vector_12" d="M165.735 35.3147L146.002 5.1377L126.269 12.5335" stroke="#373A3A" stroke-linecap="round" stroke-linejoin="round"/>
<path id="Vector_13" d="M185.334 65.2905L206.109 97.0923L185.334 104.23" stroke="#373A3A" stroke-linecap="round" stroke-linejoin="round"/>
<path id="Vector_14" d="M106.681 58.8238L85.8828 27.6719V115.39L206.109 184.81V97.0913" stroke="#373A3A" stroke-linecap="round" stroke-linejoin="round"/>
<path id="Vector_15" d="M180.896 44.0777L106.681 1.21582V58.8244" stroke="#373A3A" stroke-linecap="round" stroke-linejoin="round"/>
<path id="Vector_16" d="M159.706 113.833L185.334 104.23V46.6325L180.896 44.0776" stroke="#373A3A" stroke-linecap="round" stroke-linejoin="round"/>
<path id="Vector_17" d="M132.286 97.9999L106.681 58.8247" stroke="#373A3A" stroke-linecap="round" stroke-linejoin="round"/>
<path id="Vector_18" d="M169.198 57.4345L122.806 30.6528" stroke="#373A3A" stroke-width="2" stroke-linecap="round" stroke-linejoin="round"/>
<path id="Vector_19" d="M169.198 68.662L122.806 41.8691" stroke="#373A3A" stroke-width="2" stroke-linecap="round" stroke-linejoin="round"/>
<path id="Vector_20" d="M169.198 79.8798L122.806 53.0981" stroke="#373A3A" stroke-width="2" stroke-linecap="round" stroke-linejoin="round"/>
<path id="Vector_21" d="M169.198 91.0966L122.806 64.3149" stroke="#373A3A" stroke-width="2" stroke-linecap="round" stroke-linejoin="round"/>
<path id="Vector_22" d="M180.897 44.0776L152.86 1.18213L124.812 11.6931" stroke="#373A3A" stroke-linecap="round" stroke-linejoin="round"/>
<path id="Vector_23" d="M106.681 18.4844L92.7407 23.7174L85.8828 27.6731L106.681 19.8851" stroke="#373A3A" stroke-linecap="round" stroke-linejoin="round"/>
<path id="Vector_24" d="M129.048 87.7011V226.786C129.048 229.341 127.501 230.529 125.574 229.409L4.04775 159.25C2.98853 158.489 2.12247 157.491 1.51916 156.335C0.915852 155.179 0.59212 153.897 0.573975 152.593V13.5193C0.573975 10.9644 2.13157 9.77658 4.04775 10.8972L125.574 81.0561C126.633 81.8137 127.5 82.8098 128.103 83.9642C128.707 85.1185 129.03 86.3987 129.048 87.7011ZM102.983 144.593C102.983 120.243 85.8943 90.637 64.8051 78.4788C43.716 66.3206 26.6385 76.2377 26.6385 100.52C26.6385 124.803 43.7272 154.476 64.8051 166.634C85.8831 178.792 102.983 168.943 102.983 144.593ZM42.9092 53.703C42.8716 52.9464 42.655 52.2095 42.277 51.553C41.8991 50.8965 41.3707 50.3391 40.7353 49.9267C39.5363 49.2319 38.5726 49.7922 38.5726 51.1705C38.6106 51.9226 38.8264 52.6551 39.2023 53.3076C39.5783 53.9602 40.1036 54.5143 40.7353 54.9244C41.9343 55.6416 42.9092 55.0925 42.9092 53.703ZM31.6026 47.1701C31.5615 46.4158 31.3433 45.6819 30.9656 45.0277C30.5879 44.3735 30.0614 43.8176 29.4287 43.4049C28.2185 42.7102 27.2548 43.2817 27.2548 44.66C27.2932 45.4148 27.5103 46.1498 27.8882 46.8044C28.2662 47.459 28.7941 48.0144 29.4287 48.4251C30.6277 49.1199 31.6026 48.5596 31.6026 47.1701ZM20.2736 40.6371C20.2347 39.8837 20.0185 39.15 19.6428 38.4958C19.267 37.8416 18.7421 37.2852 18.1109 36.872C16.9119 36.1772 15.937 36.7375 15.937 38.127C15.9781 38.8813 16.1963 39.6152 16.574 40.2694C16.9517 40.9236 17.4782 41.4795 18.1109 41.8922C19.3099 42.5869 20.2736 42.0154 20.2736 40.6371Z" fill="#FFFBF7"/>
<path id="Vector_25" d="M64.8049 78.4676C85.894 90.6371 102.983 120.243 102.983 144.581C102.983 168.92 85.894 178.792 64.8049 166.645C43.7157 154.498 26.6382 124.859 26.6382 100.532C26.6382 76.2041 43.7157 66.2982 64.8049 78.4676Z" fill="#D2CBC4"/>
<path id="Vector_26" d="M42.9094 53.7032C42.9094 55.0928 41.9345 55.6418 40.7355 54.9471C40.1038 54.5369 39.5785 53.9828 39.2025 53.3303C38.8266 52.6777 38.6108 51.9453 38.5728 51.1932C38.5728 49.8149 39.5364 49.2546 40.7355 49.9493C41.3679 50.3596 41.8945 50.9134 42.2723 51.5658C42.65 52.2181 42.8683 52.9505 42.9094 53.7032Z" fill="white"/>
<path id="Vector_27" d="M29.4285 43.4055C30.0612 43.8182 30.5878 44.3741 30.9655 45.0283C31.3432 45.6825 31.5614 46.4164 31.6025 47.1707C31.6025 48.5602 30.6276 49.1205 29.4285 48.4257C28.794 48.015 28.266 47.4596 27.8881 46.805C27.5101 46.1504 27.293 45.4155 27.2546 44.6606C27.2546 43.2823 28.2183 42.7108 29.4285 43.4055Z" fill="white"/>
<path id="Vector_28" d="M20.2736 40.638C20.2736 42.0163 19.3099 42.5878 18.1109 41.8931C17.4782 41.4804 16.9517 40.9244 16.574 40.2703C16.1963 39.6161 15.9781 38.8822 15.937 38.1279C15.937 36.7384 16.9119 36.1781 18.1109 36.8729C18.7421 37.2861 19.267 37.8425 19.6428 38.4967C20.0185 39.1509 20.2347 39.8845 20.2736 40.638Z" fill="white"/>
<path id="Vector_29" d="M125.574 229.409L4.04775 159.25C2.98853 158.489 2.12247 157.491 1.51916 156.335C0.915852 155.179 0.59212 153.897 0.573975 152.593V13.5193C0.573975 10.9644 2.13157 9.77658 4.04775 10.8972L125.574 81.0561C126.633 81.8137 127.5 82.8098 128.103 83.9642C128.707 85.1185 129.03 86.3987 129.048 87.7011V226.786C129.048 229.341 127.501 230.529 125.574 229.409Z" stroke="#373A3A" stroke-linecap="round" stroke-linejoin="round"/>
<path id="Vector_30" d="M20.2736 40.638C20.2736 42.0163 19.3099 42.5878 18.1109 41.8931C17.4782 41.4804 16.9517 40.9244 16.574 40.2703C16.1963 39.6161 15.9781 38.8822 15.937 38.1279C15.937 36.7384 16.9119 36.1781 18.1109 36.8729C18.7421 37.2861 19.267 37.8425 19.6428 38.4967C20.0185 39.1509 20.2347 39.8845 20.2736 40.638Z" stroke="#373A3A" stroke-width="3" stroke-linecap="round" stroke-linejoin="round"/>
<path id="Vector_31" d="M31.6025 47.1707C31.6025 48.5602 30.6276 49.1205 29.4285 48.4257C28.794 48.015 28.266 47.4596 27.8881 46.805C27.5101 46.1504 27.293 45.4155 27.2546 44.6606C27.2546 43.2823 28.2183 42.7108 29.4285 43.4055C30.0612 43.8182 30.5878 44.3741 30.9655 45.0283C31.3432 45.6825 31.5614 46.4164 31.6025 47.1707Z" stroke="#373A3A" stroke-width="3" stroke-linecap="round" stroke-linejoin="round"/>
<path id="Vector_32" d="M42.9094 53.7032C42.9094 55.0928 41.9345 55.6418 40.7355 54.9471C40.1038 54.5369 39.5785 53.9828 39.2025 53.3303C38.8266 52.6777 38.6108 51.9453 38.5728 51.1932C38.5728 49.8149 39.5364 49.2546 40.7355 49.9493C41.3679 50.3596 41.8945 50.9134 42.2723 51.5658C42.65 52.2181 42.8683 52.9505 42.9094 53.7032Z" stroke="#373A3A" stroke-width="3" stroke-linecap="round" stroke-linejoin="round"/>
<path id="Vector_33" d="M102.983 144.593C102.983 120.243 85.894 90.6375 64.8049 78.4793C43.7157 66.3211 26.6382 76.2381 26.6382 100.521C26.6382 124.804 43.7269 154.476 64.8049 166.635C85.8828 178.793 102.983 168.943 102.983 144.593Z" stroke="#373A3A" stroke-linecap="round" stroke-linejoin="round"/>
<path id="Vector_34" d="M51.1833 122.505L58.1814 131.822L78.4378 117.828" stroke="#373A3A" stroke-width="3" stroke-linecap="round" stroke-linejoin="round"/>
</g>
<mask id="mask0_589_8841" style="mask-type:alpha" maskUnits="userSpaceOnUse" x="0" y="0" width="214" height="231">
<g id="icons design_2">
<path id="Vector_35" d="M212.967 93.1259V180.855L206.109 184.811V97.0927L185.334 65.2908V50.8467L212.967 93.1259Z" fill="#D2CBC4"/>
<path id="Vector_36" d="M206.109 97.0918V184.81L159.706 113.833L185.334 104.23L206.109 97.0918Z" fill="#FFFBF7"/>
<path id="Vector_37" d="M185.334 65.2905L206.109 97.0923L185.334 104.23V65.2905Z" fill="#373A3A"/>
<path id="Vector_38" d="M159.706 113.833L206.109 184.81L85.8828 115.391L146.001 92.856L159.706 113.833Z" fill="#FFFBF7"/>
<path id="Vector_39" d="M124.812 11.6932L185.334 46.6326V104.23L159.706 113.833L146.002 92.8562L132.286 97.9996L106.681 58.8244V1.21582L124.812 11.6932Z" fill="#FFECD1"/>
<path id="Vector_40" d="M146.002 5.1377L165.735 35.3147L126.269 12.5335L146.002 5.1377Z" fill="#373A3A"/>
<path id="Vector_41" d="M124.812 11.6931L152.86 1.18213L180.897 44.0776L165.735 35.3147L146.002 5.13775L126.269 12.5335L124.812 11.6931Z" fill="#D2CBC4"/>
<path id="Vector_42" d="M106.681 58.8238L132.286 97.999L85.8828 115.39V27.6719L106.681 58.8238Z" fill="#FFFBF7"/>
<path id="Vector_43" d="M106.681 19.8848V58.8246L85.8828 27.6727L106.681 19.8848Z" fill="#373A3A"/>
<path id="Vector_44" d="M106.681 18.4844V19.8851L85.8828 27.6731L92.7407 23.7174L106.681 18.4844Z" fill="white"/>
<path id="Vector_45" d="M185.334 50.8467L212.967 93.1259V180.855L206.109 184.811L146.001 92.8569L85.8828 115.392" stroke="#373A3A" stroke-linecap="round" stroke-linejoin="round"/>
<path id="Vector_46" d="M165.735 35.3147L146.002 5.1377L126.269 12.5335" stroke="#373A3A" stroke-linecap="round" stroke-linejoin="round"/>
<path id="Vector_47" d="M185.334 65.2905L206.109 97.0923L185.334 104.23" stroke="#373A3A" stroke-linecap="round" stroke-linejoin="round"/>
<path id="Vector_48" d="M106.681 58.8238L85.8828 27.6719V115.39L206.109 184.81V97.0913" stroke="#373A3A" stroke-linecap="round" stroke-linejoin="round"/>
<path id="Vector_49" d="M180.896 44.0777L106.681 1.21582V58.8244" stroke="#373A3A" stroke-linecap="round" stroke-linejoin="round"/>
<path id="Vector_50" d="M159.706 113.833L185.334 104.23V46.6325L180.896 44.0776" stroke="#373A3A" stroke-linecap="round" stroke-linejoin="round"/>
<path id="Vector_51" d="M132.286 97.9999L106.681 58.8247" stroke="#373A3A" stroke-linecap="round" stroke-linejoin="round"/>
<path id="Vector_52" d="M169.198 57.4345L122.806 30.6528" stroke="#373A3A" stroke-width="2" stroke-linecap="round" stroke-linejoin="round"/>
<path id="Vector_53" d="M169.198 68.662L122.806 41.8691" stroke="#373A3A" stroke-width="2" stroke-linecap="round" stroke-linejoin="round"/>
<path id="Vector_54" d="M169.198 79.8798L122.806 53.0981" stroke="#373A3A" stroke-width="2" stroke-linecap="round" stroke-linejoin="round"/>
<path id="Vector_55" d="M169.198 91.0966L122.806 64.3149" stroke="#373A3A" stroke-width="2" stroke-linecap="round" stroke-linejoin="round"/>
<path id="Vector_56" d="M180.897 44.0776L152.86 1.18213L124.812 11.6931" stroke="#373A3A" stroke-linecap="round" stroke-linejoin="round"/>
<path id="Vector_57" d="M106.681 18.4844L92.7407 23.7174L85.8828 27.6731L106.681 19.8851" stroke="#373A3A" stroke-linecap="round" stroke-linejoin="round"/>
<path id="Vector_58" d="M129.048 87.7011V226.786C129.048 229.341 127.501 230.529 125.574 229.409L4.04775 159.25C2.98853 158.489 2.12247 157.491 1.51916 156.335C0.915852 155.179 0.59212 153.897 0.573975 152.593V13.5193C0.573975 10.9644 2.13157 9.77658 4.04775 10.8972L125.574 81.0561C126.633 81.8137 127.5 82.8098 128.103 83.9642C128.707 85.1185 129.03 86.3987 129.048 87.7011ZM102.983 144.593C102.983 120.243 85.8943 90.637 64.8051 78.4788C43.716 66.3206 26.6385 76.2377 26.6385 100.52C26.6385 124.803 43.7272 154.476 64.8051 166.634C85.8831 178.792 102.983 168.943 102.983 144.593ZM42.9092 53.703C42.8716 52.9464 42.655 52.2095 42.277 51.553C41.8991 50.8965 41.3707 50.3391 40.7353 49.9267C39.5363 49.2319 38.5726 49.7922 38.5726 51.1705C38.6106 51.9226 38.8264 52.6551 39.2023 53.3076C39.5783 53.9602 40.1036 54.5143 40.7353 54.9244C41.9343 55.6416 42.9092 55.0925 42.9092 53.703ZM31.6026 47.1701C31.5615 46.4158 31.3433 45.6819 30.9656 45.0277C30.5879 44.3735 30.0614 43.8176 29.4287 43.4049C28.2185 42.7102 27.2548 43.2817 27.2548 44.66C27.2932 45.4148 27.5103 46.1498 27.8882 46.8044C28.2662 47.459 28.7941 48.0144 29.4287 48.4251C30.6277 49.1199 31.6026 48.5596 31.6026 47.1701ZM20.2736 40.6371C20.2347 39.8837 20.0185 39.15 19.6428 38.4958C19.267 37.8416 18.7421 37.2852 18.1109 36.872C16.9119 36.1772 15.937 36.7375 15.937 38.127C15.9781 38.8813 16.1963 39.6152 16.574 40.2694C16.9517 40.9236 17.4782 41.4795 18.1109 41.8922C19.3099 42.5869 20.2736 42.0154 20.2736 40.6371Z" fill="#FFFBF7"/>
<path id="Vector_59" d="M64.8049 78.4676C85.894 90.6371 102.983 120.243 102.983 144.581C102.983 168.92 85.894 178.792 64.8049 166.645C43.7157 154.498 26.6382 124.859 26.6382 100.532C26.6382 76.2041 43.7157 66.2982 64.8049 78.4676Z" fill="#D2CBC4"/>
<path id="Vector_60" d="M42.9094 53.7032C42.9094 55.0928 41.9345 55.6418 40.7355 54.9471C40.1038 54.5369 39.5785 53.9828 39.2025 53.3303C38.8266 52.6777 38.6108 51.9453 38.5728 51.1932C38.5728 49.8149 39.5364 49.2546 40.7355 49.9493C41.3679 50.3596 41.8945 50.9134 42.2723 51.5658C42.65 52.2181 42.8683 52.9505 42.9094 53.7032Z" fill="white"/>
<path id="Vector_61" d="M29.4285 43.4055C30.0612 43.8182 30.5878 44.3741 30.9655 45.0283C31.3432 45.6825 31.5614 46.4164 31.6025 47.1707C31.6025 48.5602 30.6276 49.1205 29.4285 48.4257C28.794 48.015 28.266 47.4596 27.8881 46.805C27.5101 46.1504 27.293 45.4155 27.2546 44.6606C27.2546 43.2823 28.2183 42.7108 29.4285 43.4055Z" fill="white"/>
<path id="Vector_62" d="M20.2736 40.638C20.2736 42.0163 19.3099 42.5878 18.1109 41.8931C17.4782 41.4804 16.9517 40.9244 16.574 40.2703C16.1963 39.6161 15.9781 38.8822 15.937 38.1279C15.937 36.7384 16.9119 36.1781 18.1109 36.8729C18.7421 37.2861 19.267 37.8425 19.6428 38.4967C20.0185 39.1509 20.2347 39.8845 20.2736 40.638Z" fill="white"/>
<path id="Vector_63" d="M125.574 229.409L4.04775 159.25C2.98853 158.489 2.12247 157.491 1.51916 156.335C0.915852 155.179 0.59212 153.897 0.573975 152.593V13.5193C0.573975 10.9644 2.13157 9.77658 4.04775 10.8972L125.574 81.0561C126.633 81.8137 127.5 82.8098 128.103 83.9642C128.707 85.1185 129.03 86.3987 129.048 87.7011V226.786C129.048 229.341 127.501 230.529 125.574 229.409Z" stroke="#373A3A" stroke-linecap="round" stroke-linejoin="round"/>
<path id="Vector_64" d="M20.2736 40.638C20.2736 42.0163 19.3099 42.5878 18.1109 41.8931C17.4782 41.4804 16.9517 40.9244 16.574 40.2703C16.1963 39.6161 15.9781 38.8822 15.937 38.1279C15.937 36.7384 16.9119 36.1781 18.1109 36.8729C18.7421 37.2861 19.267 37.8425 19.6428 38.4967C20.0185 39.1509 20.2347 39.8845 20.2736 40.638Z" stroke="#373A3A" stroke-width="3" stroke-linecap="round" stroke-linejoin="round"/>
<path id="Vector_65" d="M31.6025 47.1707C31.6025 48.5602 30.6276 49.1205 29.4285 48.4257C28.794 48.015 28.266 47.4596 27.8881 46.805C27.5101 46.1504 27.293 45.4155 27.2546 44.6606C27.2546 43.2823 28.2183 42.7108 29.4285 43.4055C30.0612 43.8182 30.5878 44.3741 30.9655 45.0283C31.3432 45.6825 31.5614 46.4164 31.6025 47.1707Z" stroke="#373A3A" stroke-width="3" stroke-linecap="round" stroke-linejoin="round"/>
<path id="Vector_66" d="M42.9094 53.7032C42.9094 55.0928 41.9345 55.6418 40.7355 54.9471C40.1038 54.5369 39.5785 53.9828 39.2025 53.3303C38.8266 52.6777 38.6108 51.9453 38.5728 51.1932C38.5728 49.8149 39.5364 49.2546 40.7355 49.9493C41.3679 50.3596 41.8945 50.9134 42.2723 51.5658C42.65 52.2181 42.8683 52.9505 42.9094 53.7032Z" stroke="#373A3A" stroke-width="3" stroke-linecap="round" stroke-linejoin="round"/>
<path id="Vector_67" d="M102.983 144.593C102.983 120.243 85.894 90.6375 64.8049 78.4793C43.7157 66.3211 26.6382 76.2381 26.6382 100.521C26.6382 124.804 43.7269 154.476 64.8049 166.635C85.8828 178.793 102.983 168.943 102.983 144.593Z" stroke="#373A3A" stroke-linecap="round" stroke-linejoin="round"/>
</g>
</mask>
<g mask="url(#mask0_589_8841)">
<g id="Vector_68" style="mix-blend-mode:plus-lighter" opacity="0.33" filter="url(#filter0_f_589_8841)">
<path fill-rule="evenodd" clip-rule="evenodd" d="M209.596 137.45C239.373 142.822 278.513 131.232 293.295 158.299C308.449 186.048 286 219.474 269.396 246.95C254.599 271.436 235.05 292.86 207.976 299.485C179.624 306.422 146.605 303.778 127.38 281.7C109.641 261.329 121.906 230.603 123.946 202.988C125.858 177.116 118.224 145.944 138.562 130.382C158.892 114.825 184.977 133.008 209.596 137.45Z" fill="#FF620B"/>
</g>
<g id="Vector_69" style="mix-blend-mode:plus-lighter" opacity="0.33" filter="url(#filter1_f_589_8841)">
<path fill-rule="evenodd" clip-rule="evenodd" d="M209.596 137.45C239.373 142.822 278.513 131.232 293.295 158.299C308.449 186.048 286 219.475 269.396 246.95C254.599 271.437 235.05 292.861 207.976 299.485C179.624 306.423 146.605 303.778 127.38 281.7C109.641 261.33 121.906 230.603 123.946 202.988C125.858 177.117 118.224 145.944 138.562 130.382C158.892 114.825 184.977 133.008 209.596 137.45Z" fill="#FF620B"/>
</g>
<g id="Vector_70" style="mix-blend-mode:plus-lighter" opacity="0.14" filter="url(#filter2_f_589_8841)">
<path fill-rule="evenodd" clip-rule="evenodd" d="M43.7125 59.3994C58.3634 62.0427 77.6217 56.34 84.8946 69.6577C92.3509 83.3109 81.3051 99.7576 73.1356 113.276C65.855 125.324 56.2364 135.866 42.9154 139.125C28.9655 142.539 12.7192 141.237 3.25974 130.374C-5.46828 120.352 0.566399 105.233 1.57043 91.646C2.51109 78.9164 -1.24522 63.5787 8.76146 55.9217C18.7648 48.2673 31.5989 57.2138 43.7125 59.3994Z" fill="#FF620B"/>
</g>
</g>
</g>
<defs>
<filter id="filter0_f_589_8841" x="-4.0813" y="2.20166" width="424.394" height="422.679" filterUnits="userSpaceOnUse" color-interpolation-filters="sRGB">
<feFlood flood-opacity="0" result="BackgroundImageFix"/>
<feBlend mode="normal" in="SourceGraphic" in2="BackgroundImageFix" result="shape"/>
<feGaussianBlur stdDeviation="61" result="effect1_foregroundBlur_589_8841"/>
</filter>
<filter id="filter1_f_589_8841" x="-4.0813" y="2.20215" width="424.394" height="422.679" filterUnits="userSpaceOnUse" color-interpolation-filters="sRGB">
<feFlood flood-opacity="0" result="BackgroundImageFix"/>
<feBlend mode="normal" in="SourceGraphic" in2="BackgroundImageFix" result="shape"/>
<feGaussianBlur stdDeviation="61" result="effect1_foregroundBlur_589_8841"/>
</filter>
<filter id="filter2_f_589_8841" x="-34.9953" y="19.2809" width="155.959" height="155.115" filterUnits="userSpaceOnUse" color-interpolation-filters="sRGB">
<feFlood flood-opacity="0" result="BackgroundImageFix"/>
<feBlend mode="normal" in="SourceGraphic" in2="BackgroundImageFix" result="shape"/>
<feGaussianBlur stdDeviation="16.8" result="effect1_foregroundBlur_589_8841"/>
</filter>
</defs>
</svg>
